0
SECTION
2
HEADER
9
$ACADVER
1
AC1009
9
$INSUNITS
70
4
0
ENDSEC
0
SECTION
2
ENTITIES
0
ARC
8
0
10
0
20
0
30
0
40
128
50
150
51
210
0
ARC
8
0
10
0
20
0
30
0
40
104.5
50
150
51
210
0
LINE
8
0
10
-110.851251684
20
64
30
0
11
-105.81423143
21
61.091875
31
0
0
LINE
8
0
10
-105.81423143
20
61.091875
30
0
11
-105.363061279
21
64.223324624
31
0
0
LINE
8
0
10
-105.363061279
20
64.223324624
30
0
11
-93.050345101
21
57.114574624
31
0
0
LINE
8
0
10
-93.050345101
20
57.114574624
30
0
11
-95.53667495
21
55.158125
31
0
0
LINE
8
0
10
-95.53667495
20
55.158125
30
0
11
-90.499654695
21
52.25
31
0
0
LINE
8
0
10
-110.851251684
20
-64
30
0
11
-106.074039051
21
-61.241875
31
0
0
LINE
8
0
10
-106.074039051
20
-61.241875
30
0
11
-108.563866157
21
-59.279197909
31
0
0
LINE
8
0
10
-108.563866157
20
-59.279197909
30
0
11
-95.724095793
21
-51.88371978
31
0
0
LINE
8
0
10
-95.724095793
20
-51.88371978
30
0
11
-95.276867329
21
-55.008125
31
0
0
LINE
8
0
10
-95.276867329
20
-55.008125
30
0
11
-90.499654695
21
-52.25
31
0
0
ENDSEC
0
EOF
